<svg width="800" height="600" viewBox="0 0 800 600" xmlns="http://www.w3.org/2000/svg" role="img" aria-label="Colombo Skyline">
  <defs>
    <linearGradient id="g1" x1="0" x2="0" y1="0" y2="1">
      <stop offset="0%" stop-color="#0ea5e9" />
      <stop offset="100%" stop-color="#0369a1" />
    </linearGradient>
    <linearGradient id="g2" x1="0" x2="1" y1="0" y2="1">
      <stop offset="0%" stop-color="#38bdf8" />
      <stop offset="100%" stop-color="#0284c7" />
    </linearGradient>
  </defs>
  <rect width="800" height="600" fill="#0f172a" />
  <g fill="url(#g1)" opacity="0.25">
    <circle cx="700" cy="90" r="70" />
  </g>
  <g fill="#1e293b">
    <rect x="80" y="260" width="60" height="200" rx="4" />
    <rect x="160" y="220" width="70" height="240" rx="4" />
    <rect x="250" y="180" width="55" height="280" rx="4" />
    <rect x="325" y="140" width="85" height="320" rx="4" />
    <rect x="430" y="200" width="70" height="260" rx="4" />
    <rect x="520" y="170" width="60" height="290" rx="4" />
    <rect x="600" y="230" width="75" height="230" rx="4" />
  </g>
  <g stroke="#38bdf8" stroke-width="2" stroke-linecap="round">
    <line x1="367" y1="140" x2="367" y2="110" />
    <line x1="367" y1="110" x2="360" y2="118" />
    <line x1="367" y1="110" x2="374" y2="118" />
  </g>
  <text x="50%" y="560" text-anchor="middle" font-family="'Segoe UI', Arial, sans-serif" font-size="40" fill="url(#g2)">Colombo</text>
</svg>